<svg id="Vrstva_1" data-name="Vrstva 1" xmlns="http://www.w3.org/2000/svg" viewBox="0 0 649.039 864.0981">
  <g>
    <path id="fullLogo" d="M257.7182.4119a3.2215,3.2215,0,0,0-2.1022,2.7925c-.6589,2.9493-.6276,3.4513.22,5.177a4.516,4.516,0,0,0,1.0982,1.6315c.1568,0,.5647.5962.91,1.3178,1.0354,2.165,6.4634,9.6638,6.9968,9.6638a4.3022,4.3022,0,0,1,1.0354,1.4119,4.1808,4.1808,0,0,0,1.4433,1.5688,15.0969,15.0969,0,0,1,2.6669,2.6042,16.3383,16.3383,0,0,0,3.0749,2.8866,5.748,5.748,0,0,1,1.82,1.7885,12.8933,12.8933,0,0,0,2.4473,2.4473,5.4521,5.4521,0,0,1,1.5688,1.4433c0,.1569.5334.5334,1.1609.8158a3.6207,3.6207,0,0,1,1.7257,1.6943A2.6587,2.6587,0,0,0,283.29,39.13a10.8239,10.8239,0,0,1,2.2905,1.4119,27.0381,27.0381,0,0,0,2.73,1.9454,40.4164,40.4164,0,0,1,4.4867,3.9847,46.909,46.909,0,0,0,4.9888,4.424c1.0354.7217,2.416,1.6943,3.0435,2.1649a27.0017,27.0017,0,0,0,3.1062,1.8512,7.9467,7.9467,0,0,1,2.29,1.5688,2.7076,2.7076,0,0,0,1.4746.91,33.4735,33.4735,0,0,1,7.1224,4.0789c1.8512,1.6629,4.0789,2.3218,5.4908,1.5688a1.9989,1.9989,0,0,1,1.5374.0314c2.2591.7844,4.11-1.0668,4.11-4.1417,0-1.5374-.1569-1.9766-1.2865-3.7023a6.975,6.975,0,0,0-2.8552-2.6983,9.1424,9.1424,0,0,0-1.82-.7844A15.1872,15.1872,0,0,1,317.6149,50.3a20.487,20.487,0,0,0-3.0749-1.7885,5.5167,5.5167,0,0,1-1.6-.8471,15.9626,15.9626,0,0,0-2.5729-1.5374,5.2092,5.2092,0,0,1-1.9766-1.3178c0-.1569-.5021-.5334-1.13-.7844a5.4019,5.4019,0,0,1-1.7884-1.1923,28.5908,28.5908,0,0,0-2.73-2.2591c-2.6356-1.9767-4.6123-3.5768-7.2479-5.93a45.8191,45.8191,0,0,0-5.7417-4.55c-.69-.4706-2.2277-1.7256-3.42-2.761a12.57,12.57,0,0,0-2.4474-1.9453c-.3451,0-1.3491-.8786-4.4867-3.9848-3.3259-3.2631-5.2084-5.3025-5.2084-5.679a14.4664,14.4664,0,0,0-2.0708-2.6356c-1.13-1.2551-2.2905-2.6356-2.5729-3.0749s-.91-1.255-1.38-1.82a27.3376,27.3376,0,0,1-3.4514-5.4908c-.69-1.4119-1.1922-1.9453-1.9766-2.29a7.8549,7.8549,0,0,0-5.02,0Zm56.9787,13.4917a8.6418,8.6418,0,0,0-1.8512,2.1021c-.6589,1.13-.7217,1.5061-.5334,3.2a8.2756,8.2756,0,0,0,1.255,3.671c.5962.9413,1.4433,2.3532,1.914,3.1376s1.0981,1.7884,1.3805,2.2277a24.036,24.036,0,0,1,1.4433,2.51,27.67,27.67,0,0,0,1.8825,3.1376,10.461,10.461,0,0,1,1.1923,2.1022,2.0119,2.0119,0,0,0,.8158,1.0041,11.916,11.916,0,0,1,1.9767,3.0434c4.11,8.1892,4.5181,8.848,6.8713,11.17a39.4537,39.4537,0,0,0,4.1417,3.5141c.9726.69,2.5728,1.8512,3.5454,2.5728a7.358,7.358,0,0,0,2.2905,1.3492,5.1234,5.1234,0,0,1,1.8512,1.255,4.75,4.75,0,0,0,2.0394,1.255,5.02,5.02,0,0,1,2.2591,1.5061c1.5688,1.506,1.6,1.5374,4.1416,1.757,4.7378.3766,6.0869-.5333,6.4948-4.3926.1883-1.7257.1255-2.1336-.4706-3.1376a4.6783,4.6783,0,0,0-1.6943-1.5688,13.624,13.624,0,0,1-1.7571-1.0354c-2.0394-1.506-7.2478-4.8946-9.57-6.1811a18.0175,18.0175,0,0,1-5.02-3.9847,14.7626,14.7626,0,0,0-1.7884-2.1649c-1.2551-1.3178-2.1336-2.667-4.0162-6.3694-2.0708-4.0788-3.2317-5.9614-4.2984-7.0282a4.1036,4.1036,0,0,1-1.0355-1.3805,8.92,8.92,0,0,0-1.0981-2.0708,10.0684,10.0684,0,0,1-1.0982-1.9453,26.76,26.76,0,0,0-1.6629-3.2,28.96,28.96,0,0,1-1.9453-3.8278c-.4707-1.3806-2.4787-2.5729-4.7064-2.8239-1.6943-.1882-1.9767-.1255-2.9494.5962Zm47.44,4.5495a7.413,7.413,0,0,0-1.6629,1.6c-.4079.7531-.1255,3.2.5333,4.4868a36.7993,36.7993,0,0,1,.91,6.84c.2824,3.8278.6276,6.3065.91,6.8713a6.3918,6.3918,0,0,1,.4706,2.3532,6.3918,6.3918,0,0,0,.4706,2.3532,37.4051,37.4051,0,0,1,2.0395,6.0869c0,.6275,2.9493,5.1457,4.7064,7.2165a24.4319,24.4319,0,0,1,1.7256,2.1963,37.7471,37.7471,0,0,0,2.3532,3.1376,37.4084,37.4084,0,0,1,2.4474,3.3886,3.8617,3.8617,0,0,0,1.1609,1.3178,2.3821,2.3821,0,0,1,.8785,1.1923c.6275,1.4747,3.8593,4.0789,6.7772,5.428a25.08,25.08,0,0,1,2.2591,1.2864c.69.4079,2.1963,1.2865,3.3572,1.8826a25.1829,25.1829,0,0,1,2.73,1.6629,22.2248,22.2248,0,0,0,4.8632,2.8552,6.468,6.468,0,0,1,1.5688.8158,14.0488,14.0488,0,0,0,2.04,1.13,70.7092,70.7092,0,0,1,9.0363,5.8673,28.3988,28.3988,0,0,0,3.1376,2.0708,13.6344,13.6344,0,0,1,2.259,1.4119c.69.502,2.04,1.38,2.9807,1.9139a13.98,13.98,0,0,1,2.667,1.914c.8158.8157,4.9888,3.9847,8.2519,6.2752.5648.4078,1.5374,1.0981,2.1649,1.5688a4.19,4.19,0,0,0,1.5061.8785,10.1656,10.1656,0,0,1,2.3846,1.82c1.0981.9726,2.9807,2.6356,4.173,3.671,1.2236,1.0354,3.6082,3.2317,5.3339,4.8632s3.6082,3.3886,4.2044,3.922c4.5495,4.0789,7.0909,7.091,8.3146,9.8835a16.1945,16.1945,0,0,0,2.2277,3.1062,9.15,9.15,0,0,1,1.757,2.5414,2.6572,2.6572,0,0,0,.6589,1.3492,5.4228,5.4228,0,0,1,.8158,2.0081,14.7065,14.7065,0,0,0,.9413,2.9179,16.1745,16.1745,0,0,1,1.0668,3.4514,79.6634,79.6634,0,0,0,2.9807,11.2953,31.8654,31.8654,0,0,1,1.4119,6.1183c.1255,1.0354.4079,2.667.5961,3.6083.1569.9412.4079,2.6355.502,3.7651a11.001,11.001,0,0,0,.5334,2.6669c1.2237,2.2277,1.1923,9.7579,0,12.7073a23.667,23.667,0,0,0-1.1923,4.0789,9.0434,9.0434,0,0,1-.6275,2.0394,16.4246,16.4246,0,0,0-1.0982,5.1143,14.5218,14.5218,0,0,1-1.3491,4.926,20.1475,20.1475,0,0,0-1.13,4.424,13.8292,13.8292,0,0,1-1.1923,3.1376,29.2308,29.2308,0,0,0-1.6629,4.1416,12.15,12.15,0,0,1-1.3806,3.1376c-.6275.7217-1.4119,2.1964-3.2,5.71-.1882.4392-.5961,1.1922-.8471,1.7256-.251.502-.7531,1.4747-1.0668,2.1336a34.3837,34.3837,0,0,1-2.8552,4.0789c-1.2551,1.6-2.73,3.4827-3.2945,4.2044-1.004,1.3178-5.5535,6.2752-6.8713,7.4674-.3765.3452-1.2551,1.2237-1.9453,1.9453-6.9655,7.2165-13.5544,12.9583-14.8409,12.9583-.6589,0-4.11,2.1336-4.8,2.9807a41.585,41.585,0,0,1-5.0829,3.922,26.4946,26.4946,0,0,0-4.7378,5.3339,4.5675,4.5675,0,0,0-.5333,2.4474,2.7236,2.7236,0,0,0,1.1923,2.761,12.2507,12.2507,0,0,0,2.008,1.5688,5.6048,5.6048,0,0,1,1.663,1.82,3.7239,3.7239,0,0,0,2.1336,1.8512c2.259.8158,3.922.9727,4.7691.4079.9726-.6589,3.6082-.6589,5.1143,0,.6275.251,2.3532.8785,3.8278,1.3806a38.4358,38.4358,0,0,1,5.9928,2.3532,26.28,26.28,0,0,0,3.1376,1.255c2.2591.8158,7.593,3.0748,11.4209,4.8946,1.0354.4707,2.6042,1.1609,3.4827,1.5061a27.3976,27.3976,0,0,1,3.2,1.5688,6.7606,6.7606,0,0,0,2.04.9726,9.552,9.552,0,0,1,2.4787,1.0668c2.3846,1.2864,3.1062,1.6629,6.5262,3.3572a25.9713,25.9713,0,0,1,3.8593,2.2905c1.0354.8158,3.9847,2.7611,6.934,4.5181a23.699,23.699,0,0,1,2.3532,1.7257c.7844.6589,2.3219,1.9139,3.42,2.8238s3.1376,2.667,4.5182,3.9534a45.4213,45.4213,0,0,0,4.1416,3.3258,14.6231,14.6231,0,0,1,2.2277,1.7257,10.0854,10.0854,0,0,0,1.8825,1.4747,20.6762,20.6762,0,0,1,2.5728,2.0708c.7217.7216,1.9453,1.8826,2.73,2.5728s2.8866,2.667,4.6437,4.3927c1.7884,1.7256,4.1416,3.922,5.2712,4.8632,1.0981.9413,2.3845,2.1336,2.8238,2.6043.4393.502,1.0982,1.2236,1.4746,1.5688.7531.7216,7.4989,7.5616,10.5424,10.6364a10.3987,10.3987,0,0,1,1.7884,2.1336c0,.4079,2.0708,2.8552,5.5221,6.5262a47.5785,47.5785,0,0,1,6.2752,7.75,36.7343,36.7343,0,0,0,3.9848,5.3339,15.0126,15.0126,0,0,1,1.9452,2.8238c1.5688,3.0749,4.6437,6.9027,6.62,8.2205.5961.4079,1.0668.8785,1.0668,1.0354a20.6635,20.6635,0,0,0,2.29,2.5728c1.2237,1.2551,3.169,3.42,4.2985,4.8319,2.51,3.1063,4.9888,5.3339,6.2438,5.6163a8.4966,8.4966,0,0,0,4.4554-1.1609c.8785-.5333,1.8512-2.8238,1.8512-4.2671,0-1.0668-.2824-1.7884-1.8826-4.8319a4.4713,4.4713,0,0,0-1.5688-1.6629c-.502-.2824-.9412-.5962-.9412-.7531a14.32,14.32,0,0,0-2.1022-2.4787c-5.02-5.1456-8.2833-8.9735-9.13-10.6051a23.13,23.13,0,0,0-2.2591-3.1062c-.8785-1.0354-2.0708-2.6042-2.6356-3.4513a15.9831,15.9831,0,0,0-1.757-2.1964,20.5025,20.5025,0,0,1-2.2591-2.9807,27.8668,27.8668,0,0,0-2.51-3.2944c-.502-.5334-1.663-1.8826-2.5415-3.0121-2.5414-3.2318-4.8005-5.9928-5.7418-7.0283-.502-.5333-1.6943-1.8825-2.6669-3.0434a39.1867,39.1867,0,0,0-3.9534-3.9534,44.2827,44.2827,0,0,1-3.8906-3.6709c-.9413-1.0041-1.9453-2.0395-2.2905-2.3219a33.4819,33.4819,0,0,1-4.9888-5.428,14.92,14.92,0,0,0-2.73-2.7925c-1.2864-1.0668-2.73-2.3218-3.1689-2.7611a35.89,35.89,0,0,0-2.8239-2.2277,57.4751,57.4751,0,0,1-4.675-3.9219,57.7071,57.7071,0,0,0-4.3926-3.8279c-.9413-.7217-2.667-2.1963-3.7965-3.2945s-2.6356-2.4787-3.3572-3.0748c-.7531-.5962-1.9453-1.6316-2.667-2.3219a52.4566,52.4566,0,0,0-8.1264-6.0241c-.5647-.2824-2.2276-1.3178-3.6709-2.29a37.9066,37.9066,0,0,0-5.0516-3.0435,34.238,34.238,0,0,1-4.3926-2.4473,22.13,22.13,0,0,0-2.9807-1.757c-1.38-.7217-2.7925-1.5375-3.1376-1.7571a2.2755,2.2755,0,0,0-.9726-.4392,8.3419,8.3419,0,0,1-2.04-1.0982,8.3179,8.3179,0,0,0-2.1022-1.0982,9.1869,9.1869,0,0,1-1.8825-.7216,25.8694,25.8694,0,0,0-3.3572-1.2864,35.54,35.54,0,0,1-4.7064-1.8826c-3.2945-1.6-4.9574-2.29-6.3066-2.5414a6.006,6.006,0,0,1-2.0394-.9727,3.6931,3.6931,0,0,0-2.2591-.753,11.3058,11.3058,0,0,1-3.8278-1.255,13.9215,13.9215,0,0,0-3.4514-1.2551,4.239,4.239,0,0,1-1.6629-.4392,20.7456,20.7456,0,0,0-5.93-1.7571c-1.38,0-1.3177-.4393.22-1.4119.69-.4393,1.8512-1.1609,2.5729-1.6629.7216-.4707,1.757-1.13,2.3218-1.4747.5334-.3451,2.3532-1.757,4.0161-3.1376,4.11-3.42,7.4047-6.0242,8.3774-6.6831a30.0134,30.0134,0,0,0,5.5535-5.428,21.9774,21.9774,0,0,1,3.169-3.2317,28.7894,28.7894,0,0,0,5.4594-5.9928c.91-1.3492,1.7257-2.4473,4.0475-5.4281a49.9,49.9,0,0,0,3.8279-6.683c1.3177-2.6356,2.51-4.9261,2.6669-5.1143.1255-.1883.7217-1.4119,1.3178-2.6983a42.1829,42.1829,0,0,1,1.9139-3.7965,6.1623,6.1623,0,0,0,.8786-2.1963,7.6031,7.6031,0,0,1,.6588-2.165,63.69,63.69,0,0,0,2.4788-8.4715,21.3537,21.3537,0,0,1,.753-2.4787,8.1739,8.1739,0,0,0,.502-2.3218,10.51,10.51,0,0,1,.2824-2.0708c.1569-.6276.4706-1.9767.6589-3.0121a19.3042,19.3042,0,0,1,.8157-2.918,5.0113,5.0113,0,0,0,.4393-1.5688,4.0689,4.0689,0,0,1,.502-1.4747,13.8007,13.8007,0,0,0,1.4747-6.2751c.1568-3.4514-.5648-11.2013-1.1609-12.3308a17.2743,17.2743,0,0,1-.8158-3.671c-.6589-5.1143-.8471-6.2438-1.6629-8.9421-.7531-2.5729-1.1923-4.2044-1.7884-6.589-.1256-.5961-.408-1.5374-.5648-2.0394a26.5407,26.5407,0,0,1-1.3178-4.7378,20.9169,20.9169,0,0,0-.9727-3.42c-.502-1.5688-1.2864-3.8278-1.6943-5.02a21.1577,21.1577,0,0,0-1.2236-3.1376,4.4031,4.4031,0,0,1-.502-1.2864,10.1118,10.1118,0,0,0-1.412-2.1963,9.7952,9.7952,0,0,1-1.4119-2.2277,3.8064,3.8064,0,0,0-.8471-1.412,12.2307,12.2307,0,0,1-1.4747-2.1963,22.622,22.622,0,0,0-4.55-5.3966c-.69-.5648-1.5688-1.412-1.9767-1.82-.4079-.4393-1.6315-1.5688-2.7611-2.51s-3.1689-2.8866-4.55-4.2985a23.7032,23.7032,0,0,0-3.3572-3.0435,2.3415,2.3415,0,0,1-1.0354-1.0354c-.22-.69-5.6791-4.9888-11.0443-8.66a7.5414,7.5414,0,0,1-1.7885-1.5688,4.95,4.95,0,0,0-1.7256-1.255,14.6168,14.6168,0,0,1-2.667-1.7884,33.7369,33.7369,0,0,0-5.93-4.4868,49.4324,49.4324,0,0,1-4.173-2.9807,3.9946,3.9946,0,0,0-1.6629-.9413c-.5962,0-3.2318-1.6629-5.6791-3.6082a50.6746,50.6746,0,0,0-5.2084-3.5141,56.7154,56.7154,0,0,0-6.4948-3.2318,8.5038,8.5038,0,0,1-2.1021-.9412c-.9413-.5021-2.5415-1.3492-3.5141-1.8826a26.0291,26.0291,0,0,1-3.4514-2.2591,45.2246,45.2246,0,0,0-3.7024-2.6983,12.9175,12.9175,0,0,1-2.8238-2.4787c-.4393-.5961-1.757-2.1649-2.918-3.4513a24.6743,24.6743,0,0,1-2.8552-3.7965,18.3906,18.3906,0,0,0-1.9453-2.8553c-1.9453-2.259-3.2631-4.675-3.2631-5.9928a3.7837,3.7837,0,0,0-1.1923-2.6355,9.56,9.56,0,0,1-1.757-3.42c-.2824-1.0668-.69-2.4473-.91-3.0435-.2511-.7216-.3765-3.42-.3765-8.0009,0-9.2872-.0628-9.4127-5.2084-9.7579-2.918-.1882-2.9494-.1882-4.2672.7844ZM261.295,45.907a7.4829,7.4829,0,0,1-2.1963.22c-3.0749.0627-5.9615.5647-7.1224,1.2864a16.436,16.436,0,0,1-3.922,1.1923c-3.7023.7216-6.0242,1.4746-7.06,2.3532a8.421,8.421,0,0,1-1.9453,1.0981,11.2034,11.2034,0,0,0-2.51,1.7571c-1.6629,1.506-4.6122,3.5768-5.1456,3.5768a8.3715,8.3715,0,0,0-1.9767,1.1609,27.4244,27.4244,0,0,1-5.0515,3.2,3.8026,3.8026,0,0,0-1.5061,1.0981c-.1882.5021-4.5495,3.9534-5.93,4.6751a13.5288,13.5288,0,0,0-2.2591,1.6943c-.7216.6589-2.0394,1.757-2.918,2.4473a65.4944,65.4944,0,0,0-8.8166,8.9108,22.3606,22.3606,0,0,1-1.7257,2.0708,24.5036,24.5036,0,0,0-3.5768,5.3653,18.6246,18.6246,0,0,1-1.1923,2.0394,12.573,12.573,0,0,0-1.3178,2.1649,20.9225,20.9225,0,0,1-1.7884,2.7925,9.9526,9.9526,0,0,0-1.2551,2.1963,5.0328,5.0328,0,0,1-1.1609,1.7885,21.276,21.276,0,0,0-3.2,5.1456c-.502,1.0354-1.5688,3.169-3.3886,6.7458-.4392.8472-1.255,2.5415-1.7884,3.7652-.5334,1.1922-1.2864,2.8865-1.6943,3.7651a25.7574,25.7574,0,0,0-1.0982,2.8238,32.4268,32.4268,0,0,1-1.9453,5.0515c-.4392.5962-1.3178,3.8907-2.1022,7.8126-.3765,1.914-1.7256,7.3734-2.2276,9.0991-.1883.69-.5648,2.73-.8158,4.5495-.5648,4.0789-.8785,5.8987-1.2864,6.9027-.3765.91-.3138,5.7418.1255,10.1972a63.9782,63.9782,0,0,1,.3765,8.9421,33.5179,33.5179,0,0,0,.3451,5.02,34.5987,34.5987,0,0,1,.3452,5.1143,16.2244,16.2244,0,0,0,1.0981,6.6517,24.1978,24.1978,0,0,1,1.0668,4.0475,26.7619,26.7619,0,0,0,1.5374,7.2164,7.39,7.39,0,0,1,.7531,1.7571,12.5454,12.5454,0,0,0,1.2864,2.4473,12.7915,12.7915,0,0,1,1.4119,2.7611,6.346,6.346,0,0,0,1.0668,2.1022,32.5227,32.5227,0,0,1,2.2277,5.5535,37.7916,37.7916,0,0,0,2.4159,5.9928,5.71,5.71,0,0,1,.91,2.1022,4.3175,4.3175,0,0,0,1.1923,1.8826,33.7154,33.7154,0,0,1,2.416,2.8552,7.1,7.1,0,0,0,1.4433,1.6,14.7165,14.7165,0,0,1,2.1649,1.5688,15.623,15.623,0,0,0,2.165,1.5688,36.5643,36.5643,0,0,1,3.2944,3.0435c2.416,2.3532,3.3259,3.5141,3.9848,5.02.5647,1.1923,1.1295,2.008,1.5374,2.1335a2.558,2.558,0,0,1,1.0982,1.2864,8.0306,8.0306,0,0,0,1.4746,2.1022,32.5643,32.5643,0,0,1,4.424,5.6477,10.9522,10.9522,0,0,0,1.8512,2.3218c1.3806,1.3806,1.5375,1.6943,1.1923,2.1022a1.3461,1.3461,0,0,1-.9413.502c-.4706,0-2.1335.9413-4.4554,2.5415a3.1009,3.1009,0,0,1-1.4746.5961,3.1985,3.1985,0,0,0-1.5061.7531,14.8051,14.8051,0,0,1-2.1335,1.4119c-.69.3765-1.8826,1.0981-2.667,1.6a20.2627,20.2627,0,0,1-1.8825,1.13,41.19,41.19,0,0,0-4.8947,3.2944,16.5408,16.5408,0,0,1-2.73,1.6,23.5764,23.5764,0,0,0-3.671,2.165c-.5961.502-1.7257,1.4119-2.51,2.0394-.7844.5961-2.6042,2.0708-4.0161,3.2a42.1267,42.1267,0,0,1-3.4513,2.5415,25.9046,25.9046,0,0,0-3.1376,2.4159c-1.2551,1.0982-3.1063,2.5729-4.0789,3.2631a30.8032,30.8032,0,0,0-5.93,5.0516,23.9906,23.9906,0,0,1-2.9807,2.9179,17.1014,17.1014,0,0,0-2.2277,2.1022c-.251.3452-1.7884,1.7571-3.3886,3.169-1.6315,1.38-4.0161,3.6082-5.3025,4.926-1.3178,1.3178-3.7651,3.64-5.4594,5.2084-4.2985,3.922-8.5657,7.9381-9.9148,9.35-.6276.6589-2.416,2.2277-3.9534,3.4828a20.1789,20.1789,0,0,0-5.3653,5.9928,26.6877,26.6877,0,0,1-1.7884,2.4159,26.12,26.12,0,0,0-2.0708,2.9494,27.9059,27.9059,0,0,1-3.3259,4.0161c-1.2237,1.2237-2.9493,3.1376-3.8592,4.2357s-2.1022,2.4474-2.6356,2.9808a61.2439,61.2439,0,0,0-6.6831,8.1891,17.1482,17.1482,0,0,1-1.6629,2.0394,45.7153,45.7153,0,0,0-5.0515,6.589c-.5962,1.004-1.5061,2.4159-2.0081,3.1689s-1.4119,2.165-2.0394,3.1063a26.5654,26.5654,0,0,1-2.2905,3.0434,6.12,6.12,0,0,0-1.1923,1.6943,4.1309,4.1309,0,0,1-.9412,1.4433,3.6581,3.6581,0,0,0-.9413,1.6629,1.0733,1.0733,0,0,1-.3138.7844,10.8684,10.8684,0,0,0-1.3491,1.82,12.58,12.58,0,0,1-1.6316,2.1021,9.2891,9.2891,0,0,0-1.2864,1.5688c-.4079.5962-1.1609,1.6943-1.6629,2.416a19.96,19.96,0,0,0-1.4433,2.3218,2.86,2.86,0,0,1-1.4119,1.255c-1.5688.5648-2.0395,1.663-2.73,6.3694a3.8857,3.8857,0,0,0,.3137,2.1963,10.5487,10.5487,0,0,1,.6589,1.7884c.22,1.0354,2.165,2.3846,3.7965,2.6356,1.0668.1882,1.4433.0627,2.6042-.7844a7.1264,7.1264,0,0,0,1.8512-1.9767,30.3393,30.3393,0,0,1,4.0788-6.4635,12.3373,12.3373,0,0,0,1.663-2.2276,20.8015,20.8015,0,0,1,2.8866-4.33,4.0355,4.0355,0,0,0,.8785-1.412,3.2976,3.2976,0,0,1,.9726-1.3491,23.4705,23.4705,0,0,0,2.416-2.9494c.7844-1.13,1.8512-2.5414,2.3532-3.1062a11.5094,11.5094,0,0,0,1.5374-2.4473,5.25,5.25,0,0,1,.8785-1.5061,6.4764,6.4764,0,0,0,1.0668-1.6629,8.9291,8.9291,0,0,1,1.4433-2.1022,9.0509,9.0509,0,0,0,1.4433-2.0395,32.8613,32.8613,0,0,1,4.424-6.4948c4.11-4.6122,5.5222-6.2752,5.9614-7.1537.9727-1.9139,2.6356-3.8593,3.5455-4.2358a3.1229,3.1229,0,0,0,1.4119-1.2864,8.6107,8.6107,0,0,1,1.7571-1.9139,15.2746,15.2746,0,0,0,3.7651-5.1143,14.0445,14.0445,0,0,1,3.671-4.9888,7.27,7.27,0,0,0,1.8826-2.0394,34.1628,34.1628,0,0,1,4.2671-4.6123,45.4833,45.4833,0,0,0,4.3926-4.7377,7.1634,7.1634,0,0,1,2.0081-2.1022,24.6756,24.6756,0,0,0,2.8238-2.3532,15.2,15.2,0,0,1,2.6042-2.0708c.502-.2824.91-.6275.91-.753,0-.4707,1.6316-2.2905,2.6042-2.8552a97.4018,97.4018,0,0,0,8.4715-7.75,6.0255,6.0255,0,0,1,1.9453-1.4747,5.368,5.368,0,0,0,1.9454-1.6943,27.6826,27.6826,0,0,1,4.4553-4.5181c.6276-.4707,1.7571-1.4433,2.5415-2.1336a51.92,51.92,0,0,1,7.2165-5.8045,7.0994,7.0994,0,0,0,1.8825-1.5061,6.4952,6.4952,0,0,1,1.82-1.4433,11.4926,11.4926,0,0,0,2.416-1.9139,10.764,10.764,0,0,1,2.1963-1.7884,16.7231,16.7231,0,0,0,2.0394-1.3806,54.3019,54.3019,0,0,1,5.4281-3.0748,39.9292,39.9292,0,0,0,5.5849-3.2945,21.24,21.24,0,0,1,2.3845-1.9139c.6589-.4393,1.9767-1.3492,2.918-2.0394a8.8776,8.8776,0,0,1,2.0708-1.2551A6.8881,6.8881,0,0,0,212.16,270.59a5.3182,5.3182,0,0,1,2.165-1.0982,6.1525,6.1525,0,0,0,2.29-1.0354c4.5182-2.9807,5.6791-3.5141,6.9341-3.0748a4.6358,4.6358,0,0,0,4.7064-.6276c1.6316-1.2864,1.7884-1.6629,1.6-3.3886-.3452-2.9493-2.8866-6.4948-7.7813-10.8874a22.6153,22.6153,0,0,1-3.4513-3.8906,12.696,12.696,0,0,0-1.4119-1.7257c-.502-.5334-1.13-1.2551-1.3806-1.6-.251-.3765-1.0668-1.4747-1.7884-2.4159a7.7208,7.7208,0,0,1-1.3492-2.2277,3.8718,3.8718,0,0,0-1.004-1.6,16.1939,16.1939,0,0,1-1.4747-2.0394c-.7216-1.2551-3.7965-5.02-4.1416-5.02a4.861,4.861,0,0,1-1.2237-.9413,3.5144,3.5144,0,0,0-1.3178-.9412,3.7832,3.7832,0,0,1-1.3805-.9727,17.47,17.47,0,0,0-2.51-1.9453A10.9948,10.9948,0,0,1,197.1,222.585a26.8655,26.8655,0,0,0-1.7256-2.4787,19.8823,19.8823,0,0,1-3.1063-5.5222,30.9707,30.9707,0,0,0-2.259-6.2438,7.1632,7.1632,0,0,1-.8158-1.7571,40.6715,40.6715,0,0,0-1.6-3.7651,23.0049,23.0049,0,0,1-1.5374-4.3613,11.3611,11.3611,0,0,0-.5648-2.1649c-.22-.3451-.3765-1.1609-1.004-5.0829a14.2451,14.2451,0,0,0-.753-2.8238,25.8064,25.8064,0,0,1-.8472-4.55c-.1882-1.82-.5647-4.424-.8157-5.8045a59.4089,59.4089,0,0,1-.5648-7.06c-.0628-2.51-.2824-6.1811-.502-8.1578-.4079-4.11-.3451-4.8946.6275-8.1577a30.9231,30.9231,0,0,0,.9727-5.02c.1255-1.4746.4392-3.7964.7216-5.177.251-1.38.5961-3.1376.753-3.922a7.03,7.03,0,0,1,.5334-1.8825,7.0308,7.0308,0,0,0,.5334-1.8826c.1255-.7844.3451-2.2277.5334-3.2a7.89,7.89,0,0,1,.7844-2.51,3.553,3.553,0,0,0,.502-1.82,5.3476,5.3476,0,0,1,.7844-2.3532,5.4643,5.4643,0,0,0,.7844-1.8512,7.5666,7.5666,0,0,1,.7844-2.1336,7.2965,7.2965,0,0,0,.7844-2.0394,10.5081,10.5081,0,0,1,1.4119-2.5728,8.704,8.704,0,0,0,1.4119-2.8552,2,2,0,0,1,.4393-1.2237,35.667,35.667,0,0,0,3.3259-6.5262,7.722,7.722,0,0,1,1.3491-2.2277c1.6316-2.1649,2.73-3.9534,2.73-4.3926a18.1418,18.1418,0,0,1,1.7257-2.918,16.3024,16.3024,0,0,0,1.7257-2.9807,6.8621,6.8621,0,0,1,1.1923-1.9139,24.5434,24.5434,0,0,0,1.506-2.0081c.3138-.5648,4.7064-5.6477,7.1224-8.1891a29.412,29.412,0,0,1,2.9807-2.73c.8157-.6276,1.7884-1.3806,2.1022-1.6943,1.13-1.0041,4.9888-4.0162,6.8086-5.3026a10.0556,10.0556,0,0,0,2.2276-1.9453A12.2742,12.2742,0,0,1,231.08,69.47a39.2674,39.2674,0,0,0,4.0475-2.3218c.8785-.5962,2.0081-1.3806,2.51-1.7257,1.255-.8785,3.1062-2.2591,5.02-3.7965a21.9486,21.9486,0,0,1,8.0009-3.6082c.5962-.1569,1.82-.5021,2.667-.7531,4.5808-1.38,4.8-1.4119,10.856-1.3177,5.1143.0941,6.0556.0313,6.589-.4079.7844-.6276,1.1923-2.3846,1.2237-4.9888,0-1.7571-.0942-2.0708-.8472-2.7925-1.7884-1.6629-2.1963-1.7884-6.0242-1.9139a22.3648,22.3648,0,0,0-3.8279.0627Z" style="fill: #343434"/>
    <path id="fullLogo-2" data-name="fullLogo" d="M242.6263,113.6791a3.5215,3.5215,0,0,0-1.1923.753,14.32,14.32,0,0,1-2.5728,1.5061c-1.3178.69-2.8866,1.4746-3.4513,1.757-1.0668.5648-2.0081,1.6629-2.0081,2.3846a11.6532,11.6532,0,0,1-1.4747,2.6356c-1.2864,1.9139-1.506,2.4473-1.6,4.1416-.22,3.42,1.13,5.2084,5.5222,7.3106a20.3732,20.3732,0,0,1,3.2945,1.8825,3.7049,3.7049,0,0,0,1.82.7217,6.9426,6.9426,0,0,1,2.0708.4706,7.7267,7.7267,0,0,0,5.8359-.5961,6.6074,6.6074,0,0,0,2.416-4.424,2.3763,2.3763,0,0,1,.8157-1.7571,5.8729,5.8729,0,0,0,1.5688-6.2124,21.2164,21.2164,0,0,1-.6589-3.3572c-.3765-3.0749-2.4159-6.3694-4.4554-7.2165a10.8792,10.8792,0,0,0-5.93,0Zm127.7315,14.0251c-1.13.502-3.7337,1.6315-4.5809,1.9766-.9412.3765-3.4827,3.3573-4.7691,5.5536a10.2444,10.2444,0,0,0-.8471,6.9968c.7216,3.7965,3.6082,6.6517,7.844,7.7185.7844.1883,1.8512.4706,2.3532.6275a14.0412,14.0412,0,0,0,3.6082.0628c2.5414-.22,2.7925-.3138,4.2358-1.4747a32.0911,32.0911,0,0,0,3.0748-3.1062l1.5374-1.8512-.1255-3.7965c-.1568-4.0475-.1255-4.0475-2.6356-8.7225a6.0258,6.0258,0,0,0-3.1062-3.2317,6.2008,6.2008,0,0,0-3.9847-1.0668,8.1171,8.1171,0,0,0-2.6042.3138Zm-72.3215,12.2052c-1.412.3451-4.832,1.1923-6.4321,1.6-1.6316.4079-5.2084,1.1923-7.2165,1.5374-1.6629.2824-3.7337.7844-8.0009,1.8826a49.2943,49.2943,0,0,1-4.8632.9726,30.7681,30.7681,0,0,0-3.4514.7216,6.0329,6.0329,0,0,1-2.29.2824,2.5484,2.5484,0,0,0-1.8826.4079,20.44,20.44,0,0,1-5.0515,2.3218,2.3385,2.3385,0,0,0-1.1295.4393,6.5707,6.5707,0,0,1-1.8826.6275,28.5854,28.5854,0,0,0-4.3926,1.1923c-.8472.2824-2.8239.753-5.6477,1.3492a29.1348,29.1348,0,0,0-2.8238.9412,36.5959,36.5959,0,0,1-11.1385,2.04c-3.6082.22-4.9888.4392-6.7145,1.0668a12.9665,12.9665,0,0,1-3.2317.8157,4.6414,4.6414,0,0,0-1.9139.4393,24.1231,24.1231,0,0,1-3.3572.9727c-1.3806.2823-3.0121.6588-3.6083.7843-.5961.1569-1.9453.5021-2.9807.7531a33.13,33.13,0,0,0-3.5141,1.0668,26.1556,26.1556,0,0,1-3.922,1.0354,14.5747,14.5747,0,0,0-3.4513.9726,5.6183,5.6183,0,0,1-1.7257.5648,5.8282,5.8282,0,0,0-1.9453.7844,5.732,5.732,0,0,1-2.3846.7844,4.0267,4.0267,0,0,0-3.2945,2.5414c-.4079.9727-.4079,1.0668.5648,5.5849.3451,1.6.91,2.1022,2.8238,2.6042a3.3666,3.3666,0,0,1,1.82,1.0354A7.0577,7.0577,0,0,0,197.1,179.6a28.44,28.44,0,0,1,3.1062,2.1022,9.7087,9.7087,0,0,0,2.51,1.5688c1.0354.3452,1.82.8786,3.7965,2.4787a11.8863,11.8863,0,0,0,2.1022,1.3492c.5962.2824,1.5374.753,2.0394,1.0354.5334.2824,1.0982.5962,1.2864.69s1.663,1.0668,3.2632,2.1649a23.5283,23.5283,0,0,0,3.7337,2.165,20.411,20.411,0,0,1,5.177,2.5414,9.988,9.988,0,0,0,2.04,1.3178c.753.3765,2.6042,1.5061,4.0788,2.51a55.2411,55.2411,0,0,0,9.6638,5.6163c3.0435,1.1609,7.4047,3.5141,8.3147,4.4554a3.94,3.94,0,0,0,1.7256,1.0668,66.48,66.48,0,0,1,9.6011,3.4827,9.4391,9.4391,0,0,0,1.8825.753,5.9722,5.9722,0,0,1,1.7571,1.0982,8.4689,8.4689,0,0,0,2.1963,1.3178,6.7176,6.7176,0,0,1,2.1963,1.5688,7.6437,7.6437,0,0,0,2.1963,1.5688,3.906,3.906,0,0,1,1.4433.7216,15.4,15.4,0,0,0,3.42,1.5375,21.47,21.47,0,0,1,3.5769,1.506,8.7453,8.7453,0,0,0,4.1416,1.9767c2.3532.502,3.0748.0941,4.2671-2.3219a5.0921,5.0921,0,0,0,.5962-3.8278c-.1883-1.7571-.3765-2.2591-1.0982-2.918a14.3906,14.3906,0,0,0-5.679-3.3258,24.6029,24.6029,0,0,1-3.42-1.5688c-.251-.1883-1.1923-.7217-2.0708-1.1923a31.5832,31.5832,0,0,1-2.7925-1.6,7.1511,7.1511,0,0,0-2.3218-1.004,5.2743,5.2743,0,0,1-2.2277-1.2237c-1.255-1.1609-6.1811-3.7023-8.848-4.5495a13.2014,13.2014,0,0,1-4.8947-2.5414,3.5882,3.5882,0,0,0-1.5374-.91,1.6923,1.6923,0,0,1-1.004-.4393,25.9631,25.9631,0,0,0-3.3259-1.6c-5.5849-2.3218-6.6831-2.9179-9.0362-4.7691a45.5711,45.5711,0,0,0-4.0789-2.4787,43.2194,43.2194,0,0,1-3.922-2.4474,29.11,29.11,0,0,0-4.1416-2.3845c-6.1811-3.1376-9.57-5.0829-10.6992-6.1811a5.694,5.694,0,0,0-2.51-1.38,6.7726,6.7726,0,0,1-2.5415-1.3806,4.24,4.24,0,0,0-1.9139-1.0982c-.6589,0-2.1022-1.13-2.1022-1.6629,0-.502,4.3613-1.9139,7.53-2.4473a18.7786,18.7786,0,0,0,2.51-.5961,14.4193,14.4193,0,0,1,2.3532-.6276,29.2286,29.2286,0,0,0,5.6477-1.5688,43.0959,43.0959,0,0,1,4.5181-1.255,15.6041,15.6041,0,0,1,5.8673-.251c2.7611.2824,3.3573.2824,3.9848-.1569a12.09,12.09,0,0,1,2.29-.9413c.8472-.2824,3.3573-1.13,5.585-1.9139a35.4242,35.4242,0,0,1,5.9614-1.6,24.85,24.85,0,0,0,6.4007-1.6,5.2447,5.2447,0,0,1,1.6629-.4393,5.6061,5.6061,0,0,0,1.7884-.5961,36.0936,36.0936,0,0,1,6.8086-2.2591c.69-.1255,1.8826-.4079,2.667-.5961s2.1335-.4707,2.9807-.6276c.8785-.1568,2.1336-.4078,2.8238-.5961,3.3886-.8472,4.8319-1.255,6.087-1.6943a5.271,5.271,0,0,1,2.29-.3138,2.26,2.26,0,0,0,1.5688-.2823,17.42,17.42,0,0,1,3.5455-1.0041c1.5688-.2824,3.2631-.6589,3.7651-.8158a22.7489,22.7489,0,0,1,2.8238-.502c2.3219-.251,3.1063-.5647,4.3613-1.6,1.5688-1.2864,1.7884-1.8825,1.5688-4.33-.22-2.416-.69-3.4514-1.757-3.7965a5.62,5.62,0,0,1-1.4747-.7844c-.7844-.6275-1.3806-.69-3.169-.2824ZM621.7106,359.8548a6.4792,6.4792,0,0,0-1.9453,2.918,33.2415,33.2415,0,0,1-2.1963,4.7064,29.6586,29.6586,0,0,0-1.6943,3.2945,9.67,9.67,0,0,1-1.2551,1.757,6.1083,6.1083,0,0,0-1.255,1.9767,8.174,8.174,0,0,1-1.4747,2.2905c-.8471,1.004-2.1335,2.7611-2.9179,3.922-.7844,1.13-2.0081,2.7924-2.73,3.64a5.73,5.73,0,0,0-1.3492,2.1336,2.7243,2.7243,0,0,1-.8158,1.3177,6.721,6.721,0,0,0-1.2864,1.6943,16.3485,16.3485,0,0,1-1.38,1.9767,12.2962,12.2962,0,0,0-1.5688,2.3532,16.1455,16.1455,0,0,1-1.5688,2.3532,3.5889,3.5889,0,0,0-.91,1.5375,3.4778,3.4778,0,0,1-1.0355,1.4746,21.88,21.88,0,0,0-2.3845,3.0121c-.7531,1.13-1.7257,2.4473-2.1336,2.918a3.73,3.73,0,0,0-.7217,1.3178,9.9077,9.9077,0,0,1-1.9139,2.5728,19.8117,19.8117,0,0,0-2.2905,2.918,16.4955,16.4955,0,0,1-1.2236,2.0394c-1.914,2.7611-2.73,4.11-2.73,4.5809,0,.753-5.3026,8.44-5.9928,8.6911a5.7578,5.7578,0,0,0-1.0354,1.5688,8.9312,8.9312,0,0,1-1.4433,2.1022,6.0589,6.0589,0,0,0-1.2237,1.7256c-.2824.5962-.7844,1.5061-1.0982,2.04a78.2048,78.2048,0,0,1-5.5849,7.9695,10.188,10.188,0,0,0-1.7257,2.5414,9.756,9.756,0,0,1-1.8825,2.667,20.8373,20.8373,0,0,0-2.6984,3.922,14.6135,14.6135,0,0,1-2.1335,3.1689c-1.9453,1.9453-3.671,4.2985-3.8907,5.3026a3.9727,3.9727,0,0,1-1.4119,1.9139,6.0041,6.0041,0,0,0-1.6,1.9767,13.525,13.525,0,0,1-1.6944,2.5415c-.7216.8471-1.9452,2.5414-2.761,3.7651a38.5958,38.5958,0,0,1-3.7965,4.6122,20.7293,20.7293,0,0,0-3.1063,3.922,17.6223,17.6223,0,0,1-2.29,3.1376,29.2579,29.2579,0,0,0-2.1022,2.4159c-.7217,1.0355-1.38,1.0355-2.918,0a101.5865,101.5865,0,0,1-9.4441-8.1577c-4.9574-4.8319-7.4989-7.091-9.0049-8.0322a8.33,8.33,0,0,1-2.4159-2.3846,5.4566,5.4566,0,0,0-1.6316-1.7884,12.5684,12.5684,0,0,1-2.4473-2.1963c-2.667-2.9808-3.2-3.5455-4.3927-4.8006a17.5479,17.5479,0,0,1-1.82-2.1649,3.4027,3.4027,0,0,0-1.2864-1.1923,2.25,2.25,0,0,1-1.0668-1.0354c-.4706-.8472-2.008-2.51-8.848-9.507-2.2277-2.259-3.5768-3.922-3.5768-4.2985,0-1.004-1.2864-2.259-2.667-2.6356a21.6068,21.6068,0,0,0-6.0242-.4079c-.6275.1569-3.5455,4.5182-3.5455,5.334,0,.6588-16.2841,16.2841-17.7274,17.0371a4.0881,4.0881,0,0,0-1.4119.9727c0,.1568-.5961.6588-1.3178,1.1609a32.3613,32.3613,0,0,0-3.3886,2.7924,32.3462,32.3462,0,0,1-3.922,3.1376,28.2841,28.2841,0,0,0-2.8238,2.0395,28.4033,28.4033,0,0,1-3.7024,2.6983,4.6193,4.6193,0,0,0-1.5688,1.6943c-.4079.91-3.2631,3.2945-5.7418,4.7064a14.7709,14.7709,0,0,0-2.1022,1.506,1.3625,1.3625,0,0,1-1.6629.4079,35.603,35.603,0,0,1-6.589-2.8238,2.8982,2.8982,0,0,0-1.4433-.6589,5.7344,5.7344,0,0,1-1.757-.5961c-.6275-.3452-2.5728-1.1923-4.2985-1.914s-4.0475-1.7884-5.177-2.3845c-1.13-.5648-3.0749-1.5688-4.2985-2.1963a13.8108,13.8108,0,0,1-2.4787-1.412,14.1136,14.1136,0,0,0-3.9848-1.8511,17.3475,17.3475,0,0,1-2.5414-.9727c-1.2237-.5334-2.918-1.255-3.7965-1.6-.8471-.3451-1.9453-.8471-2.4159-1.0667a3.5146,3.5146,0,0,0-1.3492-.4393,2.892,2.892,0,0,1-1.3178-.6275,2.8892,2.8892,0,0,0-1.4119-.6276,9.7058,9.7058,0,0,1-2.3846-.9412c-.9726-.5334-2.1335-1.1609-2.5728-1.3806s-1.4119-.7216-2.1963-1.0668-2.259-1.0354-3.2945-1.506-2.3845-1.0668-2.9807-1.3178-1.3805-.6275-1.7257-.7844a75.9031,75.9031,0,0,0-7.436-3.4827c-1.1609-.4393-3.9848-1.6943-6.2752-2.7925s-5.3653-2.5728-6.84-3.2317a30.4568,30.4568,0,0,1-3.1062-1.5375c-1.4747-1.0668-11.17-5.8045-11.8915-5.8045a2.5916,2.5916,0,0,1-1.1609-.4079c-.7844-.5334-9.0049-4.2985-9.3814-4.2985a4.3414,4.3414,0,0,1-1.1923-.7844,3.1348,3.1348,0,0,0-1.6-.7844,7.1585,7.1585,0,0,1-2.0081-.7217c-1.7884-.9413-5.0515-2.5728-6.3693-3.1689a15.6981,15.6981,0,0,1-2.1649-1.2864,3.7822,3.7822,0,0,0-2.4787-.7844c-1.3178,0-1.5688.1255-2.9494,1.6315a14.0073,14.0073,0,0,0-3.2,5.6163c-.22.9726-4.11,5.3025-4.8006,5.3025a5.42,5.42,0,0,0-1.82,1.3178,23.5147,23.5147,0,0,1-2.8552,2.4474,61.0049,61.0049,0,0,0-8.6284,8.2832,10.7089,10.7089,0,0,1-2.4159,2.4787,26.3358,26.3358,0,0,0-2.9494,2.4474,21.9014,21.9014,0,0,1-3.6082,2.6669,17.0089,17.0089,0,0,0-3.0435,2.1963,15.177,15.177,0,0,1-2.3532,1.9453c-2.5728,1.7257-9.9775,8.597-11.64,10.8561-.5962.8158-1.82,2.2905-2.73,3.2945a19.9033,19.9033,0,0,0-1.9454,2.51c-.22.3451-.5333.6588-.7216.6588a21.8318,21.8318,0,0,1-3.0748-1.2864c-1.4747-.7216-3.4514-1.6629-4.3927-2.1335a12.5277,12.5277,0,0,1-2.9807-2.0395,12.5734,12.5734,0,0,0-2.9179-1.9767,30.4946,30.4946,0,0,1-3.2318-1.8512,7.8992,7.8992,0,0,0-1.9139-1.0668,16.553,16.553,0,0,1-2.1963-.9412,10.9276,10.9276,0,0,0-2.2591-.9413,2.1586,2.1586,0,0,1-1.004-.6589,19.6084,19.6084,0,0,0-3.8906-2.2591,25.5576,25.5576,0,0,1-4.4868-2.6355,5.1936,5.1936,0,0,0-1.4747-1.0355,62.3287,62.3287,0,0,1-6.5262-4.0475c-.4079-.2824-1.13-.7216-1.5688-.9726-1.255-.7217-5.8673-3.4827-7.3733-4.4554-.7217-.4706-1.8826-1.1923-2.5728-1.6s-2.6042-1.5688-4.2358-2.5728c-1.6316-.9726-3.2945-1.9139-3.671-2.0708-.4079-.1569-.7216-.4079-.7216-.5961,0-.3452-4.33-2.4474-6.4321-3.1376a11.0145,11.0145,0,0,1-2.8238-1.7257,23.5044,23.5044,0,0,0-4.173-2.6042,37.6631,37.6631,0,0,1-3.5769-2.0081,21.5841,21.5841,0,0,0-2.1963-1.3492,73.6165,73.6165,0,0,1-7.0282-4.2671,7.9549,7.9549,0,0,0-1.7571-1.1609,26.8777,26.8777,0,0,1-5.02-3.1062c-3.1063-2.4159-5.2712-4.2671-5.2712-4.55a2.394,2.394,0,0,0-.6275-.8786c-1.0354-1.0354-3.4514-.8471-6.62.502-3.0435,1.3178-3.5142,1.663-4.5809,3.5141a5.2259,5.2259,0,0,1-1.7885,1.82,10.8679,10.8679,0,0,0-2.0708,1.6c-.5961.5962-2.29,2.0081-3.7651,3.1376-3.4514,2.6042-5.71,4.3926-7.1537,5.6163-1.3178,1.13-5.7418,3.5769-6.4321,3.5769-.7844,0-4.173,2.73-8.1577,6.62a43.6881,43.6881,0,0,1-4.11,3.7337,7.7727,7.7727,0,0,0-1.757,1.4747,26.2324,26.2324,0,0,1-3.0121,2.667c-3.922,2.9493-4.55,3.3886-4.8319,3.3886a6.3011,6.3011,0,0,0-1.7257,1.2864l-1.38,1.2864-1.0668-.6589a14.7977,14.7977,0,0,1-2.6042-2.3532c-3.0435-3.3572-3.4828-3.7965-4.7692-4.6437a20.1863,20.1863,0,0,1-3.2-3.2944,14.2011,14.2011,0,0,0-2.6042-2.7611,25.2533,25.2533,0,0,1-4.11-2.9807c-1.1295-1.0668-3.169-2.918-5.0515-4.55-1.004-.8785-2.416-2.1649-3.1376-2.9179a4.7877,4.7877,0,0,0-1.9453-1.3178A4.7314,4.7314,0,0,1,66.262,431.58a12.5823,12.5823,0,0,0-2.8238-1.6,5.8028,5.8028,0,0,1-3.42-2.73,2.4389,2.4389,0,0,0-1.13-1.0667,12.0783,12.0783,0,0,1-3.5455-2.3532,17.3012,17.3012,0,0,0-2.4473-1.663,10.654,10.654,0,0,1-2.667-2.4159,4.1371,4.1371,0,0,0-2.29-1.8512c-.8786-.251-2.3846-1.5374-6.4321-5.6163-2.918-2.918-6.2752-6.3379-7.4675-7.593a35.096,35.096,0,0,0-3.4513-3.2317,55.1375,55.1375,0,0,1-8.0009-7.7185,5.004,5.004,0,0,0-4.1416-2.1963c-1.5688,0-2.667.6589-5.1771,3.0121L11.9816,395.78l-.22,3.1376a18.5157,18.5157,0,0,1-.5334,3.671,8.5862,8.5862,0,0,0-.5648,1.8826c-.1568.753-.5334,2.1335-.8157,3.0748s-.6589,2.3532-.8472,3.1376a8.5462,8.5462,0,0,1-.753,2.04,3.2527,3.2527,0,0,0-.4393,1.6629,6.0577,6.0577,0,0,1-.5334,2.1963,13.3665,13.3665,0,0,0-.753,3.2c-.6275,5.4908-.8471,6.84-1.0354,7.1851A38.9361,38.9361,0,0,0,5.11,432.27c-.1569,5.93-.6589,14.59-.9413,15.9076-.3137,1.5374-.69,12.99-.8471,25.1008-.0942,6.62-.3138,12.2052-.5334,13.4916-.1883,1.1923-.502,3.5455-.6275,5.177-.1569,1.6316-.4393,3.9534-.6276,5.1771C.247,505.6587-.4119,527.0258.2784,537.9132c.1883,2.918.3765,6.9655.4079,8.9422.4079,17.0371.91,30.9367,1.1609,32.7251a35.6421,35.6421,0,0,1,.3138,4.6437,12.1,12.1,0,0,0,.3137,3.1376,10.6637,10.6637,0,0,1,.5334,2.73,9.1342,9.1342,0,0,0,.5648,2.7611A7.4893,7.4893,0,0,1,4.2,595.0489c.4079,2.8865,1.4119,8.44,1.7257,9.5383a10.033,10.033,0,0,1,.3137,2.1021,6.9036,6.9036,0,0,0,.4707,2.1336c.251.5962.69,1.6316.9726,2.2591a12.4346,12.4346,0,0,1,.6589,2.73,7.7227,7.7227,0,0,0,.5962,2.3845,25.1221,25.1221,0,0,1,.91,4.3927,26.34,26.34,0,0,0,1.0981,4.7064,3.4553,3.4553,0,0,1,.4079,1.9767,4.525,4.525,0,0,0,.3451,2.1021,7.11,7.11,0,0,1,.5021,2.1336,4.22,4.22,0,0,0,.5647,1.7884,16.2282,16.2282,0,0,1,1.9453,6.0242,3.7985,3.7985,0,0,0,.5648,2.0081,7.822,7.822,0,0,1,.9413,2.6355,20.2235,20.2235,0,0,0,1.3178,3.7966,9.6051,9.6051,0,0,1,.9412,2.51,12.0565,12.0565,0,0,0,1.0982,2.7925c.6275,1.1923,1.5061,3.263,2.0081,4.5495a37.3438,37.3438,0,0,0,1.7256,3.7651,6.1367,6.1367,0,0,1,.8158,2.29,13.4154,13.4154,0,0,0,1.4119,3.6082,15.6259,15.6259,0,0,1,1.412,3.2945,15.6486,15.6486,0,0,0,1.4119,3.263,14.9622,14.9622,0,0,1,1.4119,3.2631,3.3427,3.3427,0,0,0,.753,1.4433,11.812,11.812,0,0,1,1.2237,1.8512,5.7771,5.7771,0,0,0,.9726,1.3492,1.7339,1.7339,0,0,1,.502,1.1923,9.51,9.51,0,0,0,.9413,2.6042,9.3349,9.3349,0,0,1,.9413,2.3846,104.6852,104.6852,0,0,0,5.3653,10.9816,21.9449,21.9449,0,0,1,2.0081,2.6983,23.7413,23.7413,0,0,1,3.7337,7.593,3.9891,3.9891,0,0,0,.91,1.82A22.0926,22.0926,0,0,1,49.068,713.65c2.8238,4.33,3.6082,5.4594,5.3967,7.3733,1.9139,2.04,4.173,5.24,4.173,5.8673a4.3247,4.3247,0,0,0,.9412,1.4119,4.1111,4.1111,0,0,1,.9413,1.412,5.6456,5.6456,0,0,0,1.0668,1.6,68.9557,68.9557,0,0,1,4.0475,7.3106,85.4679,85.4679,0,0,0,4.11,7.6243,29.961,29.961,0,0,1,3.2945,5.02c.5334,1.1609,3.5141,4.8,9.5383,11.7032a29.4438,29.4438,0,0,0,2.7611,2.8866,4.8652,4.8652,0,0,1,1.13,1.3178,26.5128,26.5128,0,0,0,5.5849,5.8359c1.0354.8159,2.2591,1.8512,2.73,2.3218a2.8353,2.8353,0,0,0,1.1922.8786c.4707,0,3.2945,2.0394,4.6123,3.3259a18.2429,18.2429,0,0,0,2.1963,1.8825,30.6139,30.6139,0,0,1,2.8239,2.5415,9.582,9.582,0,0,0,1.9453,1.6629c.4079,0,4.0788,3.1376,7.9381,6.7145a54.4491,54.4491,0,0,0,8.4087,6.9341,31.5924,31.5924,0,0,1,3.7652,2.8552c3.9847,3.8279,7.0282,6.4007,7.6557,6.4007a2.4559,2.4559,0,0,1,.9413.6275,25.7659,25.7659,0,0,0,4.8005,3.7024,41.6042,41.6042,0,0,1,5.8987,4.0789c.753.7216,1.8825,1.3177,7.4361,3.9847,2.3845,1.1609,5.02,2.5415,5.8986,3.1376a27.9594,27.9594,0,0,0,3.0435,1.7571,15.1335,15.1335,0,0,1,2.0081,1.13,29.7041,29.7041,0,0,0,6.4634,2.1336,25.7444,25.7444,0,0,1,4.3613,1.8512,28.1823,28.1823,0,0,0,2.9493,1.4433,25.5092,25.5092,0,0,1,3.0435,1.6,29.3573,29.3573,0,0,0,4.173,2.0708,8.5225,8.5225,0,0,1,1.8826.8472,30.4467,30.4467,0,0,0,5.3339,2.6983,2.8348,2.8348,0,0,1,1.1609.6276,3.1132,3.1132,0,0,0,1.6315.6275,9.7231,9.7231,0,0,1,3.7024,1.1923,2.7944,2.7944,0,0,0,.9726.3765,18.9037,18.9037,0,0,1,2.6042,1.506c3.2631,2.1336,4.6751,2.7925,6.4321,3.0749a10.8026,10.8026,0,0,1,3.0121.9413,7.2532,7.2532,0,0,0,2.0394.753,2.285,2.285,0,0,1,1.1609.4706,2.69,2.69,0,0,0,1.3492.4706,6.1823,6.1823,0,0,1,1.9139.5021,17.3427,17.3427,0,0,0,2.6984.7844,15.5286,15.5286,0,0,1,3.4513,1.255c1.6316.8158,2.6356,1.0354,7.091,1.5374,2.8552.3138,6.0242.8158,7.06,1.0668a15.5465,15.5465,0,0,0,3.4513.502,11.5087,11.5087,0,0,1,3.2945.6275,11.14,11.14,0,0,0,3.4513.6276c5.8046-.0315,14.7781.8158,15.8135,1.506a12.6327,12.6327,0,0,0,2.8552.4079c1.3806.1255,3.64.3765,5.02.5648s6.62.4079,11.6091.4706a100.4206,100.4206,0,0,1,10.3541.5021c.69.1883,1.8511.502,2.6042.6589.7216.1569,1.9766.4392,2.8238.5961.8158.1883,2.5414.4707,3.8279.659a16.942,16.942,0,0,1,2.8238.502,17.8477,17.8477,0,0,0,3.2945.4079,31.5053,31.5053,0,0,1,4.7064.753c1.5688.4706,2.4787.5334,5.6477.3138,2.0708-.1255,5.7418-.2511,8.1577-.2824a51.9731,51.9731,0,0,0,6.589-.4706,59.7186,59.7186,0,0,1,7.6871-.4393,42.31,42.31,0,0,0,5.93-.3137,21.3252,21.3252,0,0,1,4.3927-.2511,47.4756,47.4756,0,0,0,6.9968-.4392c3.0121-.4706,3.0435-.4706,3.7024.1883.6275.6275.8785.69,2.6356.4706,1.0354-.1254,3.3258-.2823,5.0515-.3137a15.1516,15.1516,0,0,0,3.7651-.3765c3.2318-1.663,4.8006-2.0395,7.3106-1.663a11.4306,11.4306,0,0,0,3.8907-.0314,30.38,30.38,0,0,1,3.5455-.4392,26.1769,26.1769,0,0,0,8.1263-1.4119,8.4,8.4,0,0,1,2.04-.6275,17.4447,17.4447,0,0,0,4.7377-2.3532,4.6,4.6,0,0,1,1.8512-.5648,6.4662,6.4662,0,0,0,2.6983-1.13,5.2542,5.2542,0,0,1,1.9767-.9727,8.363,8.363,0,0,0,2.0709-.5961,15.5862,15.5862,0,0,1,5.2711-.8158,17.2273,17.2273,0,0,0,5.1143-.7844,16.1006,16.1006,0,0,1,4.0789-.7844c2.51-.1883,3.169-.4079,6.0242-1.7571a25.3553,25.3553,0,0,1,4.55-1.7884,15.4946,15.4946,0,0,0,2.918-1.0981,7.0026,7.0026,0,0,1,2.6669-.8472,8.6923,8.6923,0,0,0,2.8239-.9413,8.104,8.104,0,0,1,2.1649-.9412,15.9492,15.9492,0,0,0,6.3066-2.667,15.1056,15.1056,0,0,1,2.8238-1.5688,24.7734,24.7734,0,0,0,3.2-1.6315,31.3782,31.3782,0,0,1,3.6083-1.6943,19.1806,19.1806,0,0,0,2.8238-1.2864,7.93,7.93,0,0,1,2.3532-.4707,6.5224,6.5224,0,0,0,3.1376-.91,4.9664,4.9664,0,0,1,1.757-.753,3.914,3.914,0,0,0,1.6-.753c1.4433-1.0668,9.2873-4.8947,10.04-4.8947a3.2258,3.2258,0,0,0,1.5374-.7844,3.365,3.365,0,0,1,1.5375-.7844,5.2526,5.2526,0,0,0,1.9767-.9727,9.8174,9.8174,0,0,1,2.9493-1.4119,4.3974,4.3974,0,0,0,2.29-1.3178,7.399,7.399,0,0,1,2.8238-1.7884c5.24-2.1336,9.2873-4.424,11.3581-6.4321a7.0112,7.0112,0,0,1,2.0708-1.5688,8.3085,8.3085,0,0,0,2.3532-1.7256,10.7032,10.7032,0,0,1,2.1963-1.7257,17.4027,17.4027,0,0,0,2.73-1.9767c3.671-2.9807,7.6871-5.8673,8.1577-5.8673.5648,0,1.7885-1.3178,3.1063-3.3886a6.1991,6.1991,0,0,1,1.3178-1.6316,19.6723,19.6723,0,0,0,2.5414-2.8238,30.4641,30.4641,0,0,1,3.0434-3.2945,11.8689,11.8689,0,0,0,2.1336-2.6669,29.1586,29.1586,0,0,1,3.5141-4.1731,13.8811,13.8811,0,0,0,2.667-3.2,55.4023,55.4023,0,0,1,5.6163-8.7225c.5961-.5961,1.8825-2.0395,2.8238-3.2318.9413-1.1608,3.3572-3.7965,5.3339-5.8045s4.0475-4.173,4.5495-4.8319c.5334-.6275,1.4433-1.6315,2.0395-2.259a23.9062,23.9062,0,0,0,4.2357-6.0556,10.9193,10.9193,0,0,1,1.3492-2.29,26.6176,26.6176,0,0,0,3.0435-5.0828,30.6893,30.6893,0,0,1,3.0121-5.0829,11.6325,11.6325,0,0,0,1.8511-3.7024c0-.251.4707-.6589,1.0668-.91.8786-.3765,1.13-.7217,1.5375-2.008a17.839,17.839,0,0,1,3.3258-5.8046,30.6976,30.6976,0,0,0,1.8512-2.5728,35.1181,35.1181,0,0,1,2.73-3.4513,83.3306,83.3306,0,0,0,6.0242-7.9382c.6588-.9413,1.7256-2.3218,2.3845-3.1062s1.663-2.1335,2.2591-3.0121a48.6185,48.6185,0,0,1,3.5768-4.8005,4.1645,4.1645,0,0,0,.9727-1.5061,12.5835,12.5835,0,0,1,1.255-2.6669c.69-1.2237,1.2551-2.29,1.2551-2.3532a74.0665,74.0665,0,0,1,4.11-6.1811,6.1718,6.1718,0,0,0,.91-1.8825,51.5018,51.5018,0,0,1,2.667-7.0282,22.3514,22.3514,0,0,0,1.0981-2.8239,20.425,20.425,0,0,1,.9727-2.4159,5.6574,5.6574,0,0,0,.5961-1.6629,5.3614,5.3614,0,0,1,1.1923-1.82c1.7257-1.8825,4.424-8.1891,5.24-12.2052a4.8432,4.8432,0,0,1,.9413-1.7571,16.0373,16.0373,0,0,0,2.259-6.4948,9.9727,9.9727,0,0,1,.7217-2.6669,11.6848,11.6848,0,0,0,.753-2.667c.1883-1.4746.4079-2.6983,1.0982-5.8987.1569-.7216.502-2.008.7844-2.8552a10.1363,10.1363,0,0,0,.502-2.4787,16.4812,16.4812,0,0,1,.5961-3.0121,37.2627,37.2627,0,0,0,.9727-5.8359c.4393-4.6436,1.13-8.7539,1.6-9.601a3.3312,3.3312,0,0,0,.1256-1.82,38.9289,38.9289,0,0,1,.4392-5.9928,47.4777,47.4777,0,0,0,.3765-10.511c-.3765-9.2873.4393-23.6888,1.5061-26.2931a33.351,33.351,0,0,0,.8471-3.2944,16.1,16.1,0,0,1,1.0354-3.5141c.5648-1.0982,1.5061-7.8754,1.5688-11.1385.1569-11.9542.4079-16.7234.9727-20.5512.3765-2.3219.7844-5.6477.9413-7.3734a21.81,21.81,0,0,1,.8158-4.55,13.9085,13.9085,0,0,0,.5961-3.5769,28.1641,28.1641,0,0,1,.9413-7.2164c.8785-2.0395,1.6315-17.9157,1.0982-23.25-.5648-5.7732-.91-12.4562-1.0982-20.8337-.0941-4.3612-.22-8.0636-.3138-8.1891a22.1723,22.1723,0,0,1-.22-3.5141,15.5021,15.5021,0,0,0-.3137-3.7651c-.3765-.7216-.5334-8.346-.1883-9.2872.502-1.4433-.5648-11.6719-1.3805-13.3348-.3452-.6589-.7844-4.2672-1.2237-9.4756-.5961-7.4988-.7844-9.099-1.13-9.7265a18.0362,18.0362,0,0,1-.8786-3.1062,19.6741,19.6741,0,0,0-.91-3.2945,25.3141,25.3141,0,0,1-1.3178-6.4634c-.1568-1.7257-.5333-2.918-2.8238-8.7853a39.3693,39.3693,0,0,1-2.1649-8.7225,14.7859,14.7859,0,0,0-.6589-3.2318,6.1276,6.1276,0,0,1-.4393-2.0708,8.9988,8.9988,0,0,0-2.1649-4.7691,2.2091,2.2091,0,0,1-.6589-1.4747,5.4276,5.4276,0,0,0-.1883-1.38c-.3451-.8472-2.9493-1.9453-5.2084-2.165l-2.1022-.22-1.4119,1.2864Zm3.8278,18.5432c.22,1.2864.502,3.0121.6589,3.8906a13.6276,13.6276,0,0,0,.9413,3.0435,48.79,48.79,0,0,1,3.0121,10.5423,29.5042,29.5042,0,0,0,1.9453,8.3146,11.5391,11.5391,0,0,1,.5648,3.3572,11.0145,11.0145,0,0,0,.4392,3.0749c.4079.7844.9727,6.3379.9727,9.9148a28.82,28.82,0,0,0,.3137,4.11c.1256.69.5021,2.3219.7844,3.6083,1.6,7.3106,1.7885,8.9107,1.7571,16.6292a74.43,74.43,0,0,0,.3137,8.6284c.1883,1.0354.408,5.2712.4707,9.4128.1882,11.1385.3451,14.8094.6275,15.2487a46.0689,46.0689,0,0,1,.4706,5.8987c.1569,4.173.0942,6.0242-.22,7.5616a41.5225,41.5225,0,0,0-.4392,6.589,82.0162,82.0162,0,0,1-1.2551,13.3347c-.1882,1.1923-.5648,3.8279-.8157,5.8046a45.925,45.925,0,0,1-.9413,5.177c-.5962,2.04-.9727,5.6791-1.3806,13.6486-.8471,16.41-1.2864,22.2455-1.757,24.1594-.251,1.13-.5962,2.9494-.7531,4.0789a19.8181,19.8181,0,0,1-.5647,2.8239c-.2824.69-.8472,4.2984-1.914,12.55-.1568,1.13-.2824,5.2712-.3137,9.2559-.0314,13.0838-.4707,19.6728-1.5061,22.8418a5.6183,5.6183,0,0,0-.3137,2.1335,7.188,7.188,0,0,1-.2824,2.416,19.5709,19.5709,0,0,0-.4393,3.5141,13.9027,13.9027,0,0,1-.3451,2.9807c-.1883.69-.4707,2.0394-.6589,2.9807-1.0354,5.71-1.9139,9.0676-3.0435,11.7032a7.7087,7.7087,0,0,0-.6589,2.2905,5.44,5.44,0,0,1-.6275,1.9767,12.879,12.879,0,0,0-1.5688,5.1143,7.4884,7.4884,0,0,1-1.3177,3.7023,16.4018,16.4018,0,0,0-1.3806,3.6083,27.2658,27.2658,0,0,1-3.0434,7.1537,52.2658,52.2658,0,0,0-4.7378,10.103,23.9113,23.9113,0,0,1-2.2277,4.7064,10.4385,10.4385,0,0,0-1.4119,2.6984,1.335,1.335,0,0,1-.5334.9413,6.3182,6.3182,0,0,0-1.0981,1.7571,4.487,4.487,0,0,1-.91,1.506,17.3486,17.3486,0,0,0-1.4119,2.2905c-.5961,1.1609-1.9139,3.7024-2.9493,5.6477a31.4752,31.4752,0,0,1-3.0435,4.8946c-.6589.69-1.82,2.1964-2.6042,3.2631-.7844,1.0982-2.4159,3.2317-3.64,4.7064a46.6966,46.6966,0,0,0-2.9493,3.9847,32.0761,32.0761,0,0,1-2.1022,2.9807c-.7217.9413-1.7884,2.3218-2.3532,3.0749s-1.7571,2.1649-2.6356,3.169a19.4954,19.4954,0,0,0-2.6356,3.9847,26.8376,26.8376,0,0,1-1.757,3.1376,20.8227,20.8227,0,0,0-1.6943,2.9807c-.5334,1.0982-1.3178,2.5729-1.7257,3.2631-.4393.69-.9413,1.6-1.1609,2.04a16.3716,16.3716,0,0,1-1.4119,2.0708,12.4264,12.4264,0,0,0-1.6316,2.667,14.4841,14.4841,0,0,1-2.3218,3.1375,23.5994,23.5994,0,0,0-2.8866,3.8906,23.795,23.795,0,0,1-3.42,4.3613c-1.2236,1.2236-3.2317,3.3258-4.4553,4.6122a30.3589,30.3589,0,0,1-3.4514,3.2945c-2.918,2.1649-6.9968,7.2792-9.3186,11.7346a39.2844,39.2844,0,0,1-2.2591,3.922,13.6735,13.6735,0,0,0-1.2237,2.1021,14.05,14.05,0,0,1-2.008,2.667,28.6849,28.6849,0,0,0-2.3846,2.8552,16.05,16.05,0,0,1-2.3532,2.5728,19.58,19.58,0,0,0-3.4513,3.4828,54.6871,54.6871,0,0,1-7.844,7.1851c-1.0668.7844-2.73,2.0708-3.7338,2.8865a8.7391,8.7391,0,0,1-2.1963,1.5061,7.9643,7.9643,0,0,0-2.1022,1.6315,30.4257,30.4257,0,0,1-3.4827,2.9493,52.713,52.713,0,0,1-9.0676,5.1143,5.0815,5.0815,0,0,0-1.8826.9727,39.781,39.781,0,0,1-7.53,4.675c-1.3806.6589-3.2318,1.6943-4.1416,2.2591-3.8279,2.51-4.55,2.8552-6.2125,3.0748a5.5237,5.5237,0,0,0-2.2905.753,2.0281,2.0281,0,0,1-.91.5334,2.6936,2.6936,0,0,0-1.0668.5648,19.871,19.871,0,0,1-5.24,2.259,5.9762,5.9762,0,0,0-1.9139.9413,5.22,5.22,0,0,1-2.04.9413,2.5321,2.5321,0,0,0-1.2864.4392,38.08,38.08,0,0,1-4.0789,1.7571c-1.8825.7217-4.0161,1.5688-4.7064,1.914a18.2449,18.2449,0,0,1-2.6042.91,7.2629,7.2629,0,0,0-2.3845,1.2551,4.09,4.09,0,0,1-1.3492.9413,22.5657,22.5657,0,0,0-2.8552,1.255,13.02,13.02,0,0,1-3.2631,1.255,19.6608,19.6608,0,0,0-4.8947,1.4434,5.7712,5.7712,0,0,1-1.9453.4392,4.5546,4.5546,0,0,0-3.5768,1.7257,2.8629,2.8629,0,0,1-1.8826,1.0981,4.2457,4.2457,0,0,0-1.6943.4393,10.4729,10.4729,0,0,1-2.1022.6275,23.4635,23.4635,0,0,0-2.6356.69,5.3856,5.3856,0,0,1-2.1963.2824,7.4169,7.4169,0,0,0-2.3845.1569c-.8472.1883-2.918.5961-4.5809.91a15.8713,15.8713,0,0,0-4.0789,1.1923,7.8031,7.8031,0,0,1-2.5414.8158,10.0894,10.0894,0,0,0-2.918,1.0041,6.851,6.851,0,0,1-2.1022.7844,13.3353,13.3353,0,0,0-2.8866,1.0981,14.0028,14.0028,0,0,1-2.918,1.0982,2.6711,2.6711,0,0,0-1.2864.502,7.8355,7.8355,0,0,1-2.3532.7844c-2.6983.5021-9.0676.8158-9.9775.5021-.5648-.22-1.6943-.1255-3.922.2823a41.1767,41.1767,0,0,1-7.8126.5961,24.3433,24.3433,0,0,0-5.1771.3138c-.4079.251-4.8.3765-17.9784.4392-3.2317.0314-4.6123.1569-5.4908.5334-1.1923.5021-4.7378.9727-9.4755,1.1923-1.4747.0627-5.2712.2824-8.4715.4706-4.2358.2511-6.2125.2511-7.3734,0a42.5445,42.5445,0,0,0-4.6122-.5961,15.7479,15.7479,0,0,1-3.6083-.5961,20.6011,20.6011,0,0,0-3.8592-.502c-2.3219-.1569-3.4827-.4079-4.0789-.7844a10.8626,10.8626,0,0,0-3.2945-.9413c-1.38-.1883-3.42-.502-4.5495-.69-1.13-.1568-6.4948-.3451-11.9228-.4079a112.3024,112.3024,0,0,1-11.6719-.4392,52.7815,52.7815,0,0,0-5.4908-.6589,61.5537,61.5537,0,0,1-6.3693-.753,87.1423,87.1423,0,0,0-10.511-1.4433,57.9735,57.9735,0,0,1-6.2751-.8472c-1.1923-.251-3.671-.69-5.4908-.9413a49.6909,49.6909,0,0,1-5.4908-1.0981,60.241,60.241,0,0,1-7.6871-2.4473,14.4649,14.4649,0,0,0-2.7925-.9413,23.5994,23.5994,0,0,1-3.6082-1.2551,22.1735,22.1735,0,0,0-2.8552-1.0667,22.4927,22.4927,0,0,1-5.8987-2.918,3.2676,3.2676,0,0,0-1.3178-.7217,4.6061,4.6061,0,0,1-1.5061-.6275,19.8126,19.8126,0,0,0-2.761-1.2236c-5.1143-1.82-5.8987-2.1336-6.2752-2.4473a16.8135,16.8135,0,0,0-2.3219-1.1609c-1.0354-.4707-2.29-1.0668-2.8238-1.3492-.502-.2824-1.9139-1.0668-3.1376-1.7257-1.1923-.6589-2.8866-1.5374-3.7651-1.914a7.6894,7.6894,0,0,1-1.9767-1.255,6.5682,6.5682,0,0,0-2.1963-1.004,17.9472,17.9472,0,0,1-2.6356-.9727,3.9687,3.9687,0,0,0-1.6315-.4392,16.2264,16.2264,0,0,1-5.5222-1.8512,13.7979,13.7979,0,0,0-2.8238-1.13,4.18,4.18,0,0,1-1.7571-.8471,25.0016,25.0016,0,0,0-6.15-3.0748,5.9577,5.9577,0,0,1-2.0708-.9413,6.996,6.996,0,0,0-1.9453-.9413,4.3783,4.3783,0,0,1-1.4747-.9413,3.3886,3.3886,0,0,0-1.6-.9413,10.3613,10.3613,0,0,1-2.6983-1.7256,12.0037,12.0037,0,0,0-2.5728-1.7257c-.22,0-.7217-.4079-1.13-.9413a3.474,3.474,0,0,0-1.3177-1.13c-1.0041-.3137-4.4241-2.8238-8.6912-6.3379-4.3612-3.5768-6.15-4.9887-7.8754-6.15a65.8017,65.8017,0,0,1-5.8045-5.1456,35.2372,35.2372,0,0,0-5.02-4.33,3.0607,3.0607,0,0,1-1.255-.8786,17.1424,17.1424,0,0,0-2.1336-1.9453c-2.1335-1.7571-2.8238-2.3532-5.8045-4.9887a36.9658,36.9658,0,0,0-3.0749-2.51c-3.3258-2.1963-11.4208-9.852-12.4562-11.766a20.1389,20.1389,0,0,0-2.3846-2.7611,37.748,37.748,0,0,1-4.5181-4.926c-.502-.7216-1.6316-2.0708-2.4787-3.0748a21.2581,21.2581,0,0,1-3.42-5.0829,4.6668,4.6668,0,0,0-1.004-1.4119,15.4588,15.4588,0,0,1-2.5729-3.7652c-.22-.4392-.5333-1.004-.69-1.255-.1883-.251-1.2551-2.4473-2.416-4.8633A59.6629,59.6629,0,0,0,65.5405,719.58a8.4008,8.4008,0,0,1-1.0668-1.7884c-.251-.6589-.5961-1.1923-.7844-1.1923s-.5961-.5961-.91-1.3178a12.885,12.885,0,0,0-2.2277-2.918,6.0834,6.0834,0,0,1-1.6-2.0708,15.2318,15.2318,0,0,0-2.3531-4.9888,31.4639,31.4639,0,0,1-2.4787-4.2357,21.4707,21.4707,0,0,0-2.3846-3.922,5.4426,5.4426,0,0,1-1.0668-1.6943,20.0179,20.0179,0,0,0-1.7257-2.9807c-1.4433-2.1336-2.8552-4.7378-2.8552-5.3025a16.4062,16.4062,0,0,0-2.1022-4.2043,12.3133,12.3133,0,0,1-1.1923-2.6984c-.8471-2.4787-1.8511-4.6123-2.3532-4.926a1.2965,1.2965,0,0,1-.3137-.91,2.8357,2.8357,0,0,0-.6275-1.5061,11.1,11.1,0,0,1-1.13-2.29,33.08,33.08,0,0,0-1.9139-4.0475c-.753-1.4119-1.5688-3.0434-1.82-3.64-1.4747-3.9848-2.0708-5.3967-3.1062-7.0282a7.8239,7.8239,0,0,1-1.13-2.667,13.3192,13.3192,0,0,0-.8157-3.0121c-.4393-1.2236-1.0668-3.0748-1.3492-4.1416a10.1354,10.1354,0,0,0-1.3806-2.918,3.34,3.34,0,0,1-.8471-1.8825,8.9065,8.9065,0,0,0-.7844-2.6984,8.9705,8.9705,0,0,1-.7844-2.4473,2.6875,2.6875,0,0,0-.4706-1.3178,3.1332,3.1332,0,0,1-.4707-1.6315,4.5632,4.5632,0,0,0-.3137-1.6315,15.5984,15.5984,0,0,1-.7844-2.73,52.01,52.01,0,0,0-1.6943-6.7772,6.0146,6.0146,0,0,1-.3452-1.7884,7.0023,7.0023,0,0,0-.4392-2.1022c-.22-.6589-.5648-1.9139-.7531-2.7611-1.004-4.7378-2.008-8.095-2.6355-8.8794a8.1187,8.1187,0,0,1-.5962-2.8239,35.5653,35.5653,0,0,0-.91-4.926,94.7487,94.7487,0,0,1-2.1963-12.2366,20.5915,20.5915,0,0,0-.5334-2.9807c-.0941-.251-.22-3.3572-.251-6.9027-.0628-3.5455-.251-10.3855-.4393-15.2174s-.2824-11.4836-.251-14.7467a53.5856,53.5856,0,0,0-.3137-8.4715c-.3452-1.9139-.3765-4.675-.22-11.766.0942-5.0828.22-11.2326.2824-13.6485.0314-2.4159.22-5.8673.4079-7.6871.5334-5.0515.9413-8.7225,1.2864-11.2953.1883-1.2865.4079-2.9808.502-3.7652a144.6784,144.6784,0,0,0,.7531-18.6687,98.7875,98.7875,0,0,1,.1882-11.9228c.502-7.6871.6275-10.4168,1.0982-24.0026.2824-8.346.3451-8.8167,1.5374-13.9937a36.45,36.45,0,0,1,1.7257-6.1183,2.9658,2.9658,0,0,0,.502-1.4119,12.0759,12.0759,0,0,1,.6275-2.4787,11.7659,11.7659,0,0,0,.6275-2.51A1.6146,1.6146,0,0,1,20.83,407.86c.3451-.2824.8471,0,2.73,1.7257,1.255,1.1609,3.0121,2.8552,3.8906,3.7338.91.8785,2.1335,2.008,2.7611,2.5414a6.1223,6.1223,0,0,1,1.5688,1.9139,5.3241,5.3241,0,0,0,1.4746,1.6943,27.8883,27.8883,0,0,1,3.1063,2.7925,55.2115,55.2115,0,0,0,7.3733,6.3066,25.4515,25.4515,0,0,1,3.0435,2.5728,7.6088,7.6088,0,0,0,1.757,1.506,11.43,11.43,0,0,1,2.1022,1.3806,9.0432,9.0432,0,0,0,2.6983,1.6,2.0269,2.0269,0,0,1,1.161.6588,4.1652,4.1652,0,0,0,1.0667,1.0041,71.7529,71.7529,0,0,1,6.62,4.7691c1.1923.9413,2.6355,2.1022,3.2631,2.5728.5961.4706,1.7256,1.4119,2.4787,2.1336a6.8093,6.8093,0,0,0,1.6629,1.255,58.4425,58.4425,0,0,1,4.7691,4.3927,46.1157,46.1157,0,0,0,4.8947,4.3926c.22,0,.5961.4079.8785.9413.2824.502.5962.9412.753.9412a5.7478,5.7478,0,0,1,1.2551,1.5688,4.1757,4.1757,0,0,0,1.7884,1.7571,4.796,4.796,0,0,1,1.7884,1.38,11.5353,11.5353,0,0,0,2.2905,1.9767,15.4891,15.4891,0,0,1,4.4867,4.8947,5.437,5.437,0,0,0,5.1457,2.3846,3.5153,3.5153,0,0,0,2.6356-1.3492,6.411,6.411,0,0,0,1.6629-3.8906,1.22,1.22,0,0,1,.69-.91,6.4931,6.4931,0,0,0,1.506-1.13,19.23,19.23,0,0,1,4.0789-3.0748,15.6027,15.6027,0,0,0,4.33-3.4514,41.4685,41.4685,0,0,1,6.432-5.8673,4.64,4.64,0,0,0,1.4747-1.255c0-.5334,2.6983-2.8552,5.3967-4.675a31.093,31.093,0,0,1,3.0121-1.8512,61.0264,61.0264,0,0,0,6.15-3.6082,27.867,27.867,0,0,0,2.3532-1.9453,77.3217,77.3217,0,0,1,8.1263-6.2439,13.63,13.63,0,0,0,2.5729-2.008,4.2408,4.2408,0,0,1,1.2864-1.0668l1.255-.8472,1.004.8158a62.2269,62.2269,0,0,0,7.6244,4.8633,4.81,4.81,0,0,1,1.5374.9413,16.0084,16.0084,0,0,0,2.8239,1.6943,9.4666,9.4666,0,0,1,2.008,1.255,4.5247,4.5247,0,0,0,1.5375.8471,7.492,7.492,0,0,1,2.0394,1.0982,3.4,3.4,0,0,0,1.2864.753,11.806,11.806,0,0,1,2.5728,1.4433,22.1715,22.1715,0,0,0,2.7925,1.6943,12.4833,12.4833,0,0,1,1.6943,1.0668,4.0718,4.0718,0,0,0,1.6316.8158,4.2482,4.2482,0,0,1,1.6943.9413,7.1028,7.1028,0,0,0,1.4119.9412,5.8294,5.8294,0,0,1,1.4119.9413,4.4288,4.4288,0,0,0,1.8512.9413c.8472,0,5.2084,2.1963,6.7145,3.3886a35.5312,35.5312,0,0,0,5.3966,3.2631,9.3852,9.3852,0,0,1,1.8826,1.3492,41.5492,41.5492,0,0,0,6.7772,4.2358,16.0713,16.0713,0,0,1,3.5769,2.3845,7.5109,7.5109,0,0,0,1.9453,1.1923,22.3692,22.3692,0,0,1,2.9493,1.7571,9.2644,9.2644,0,0,0,2.1963,1.255,8.3126,8.3126,0,0,1,2.04,1.255,8.26,8.26,0,0,0,2.0708,1.2551,19.1541,19.1541,0,0,1,5.0829,2.6356,3.5828,3.5828,0,0,0,1.6315.8157,10.0072,10.0072,0,0,1,2.3532,1.0982,10.6224,10.6224,0,0,0,1.7885.9726,5.1155,5.1155,0,0,1,1.6315,1.0668c1.7257,1.6316,4.0161,3.0749,8.44,5.334,5.1142,2.5728,5.0829,2.5728,5.3025,3.7337.2824,1.4433,1.8826,2.2277,4.4868,2.2277,3.1689,0,6.432-.5648,7.3419-1.1923a6.6239,6.6239,0,0,0,1.412-1.6316,52.1807,52.1807,0,0,1,5.24-5.9614,7.5293,7.5293,0,0,0,1.3806-2.1649,7.4736,7.4736,0,0,1,2.4473-2.8866,23.5714,23.5714,0,0,0,5.0515-4.9888,16.9643,16.9643,0,0,1,5.5222-4.7064,4.3219,4.3219,0,0,0,1.3805-1.1923c.6276-.8471,3.0749-2.5728,3.7338-2.5728.753,0,4.55-3.8593,4.9574-5.0515a10.2218,10.2218,0,0,1,3.3572-4.2044A15.1784,15.1784,0,0,0,295.84,451.41a22.1946,22.1946,0,0,1,2.2277-1.82c2.6669-1.5375,4.7378-3.2631,9.2873-7.7813l5.0829-5.02,1.4746.4392a6.6248,6.6248,0,0,1,1.9767.8786,8.7794,8.7794,0,0,0,3.3259,1.5374,74.3506,74.3506,0,0,1,10.0089,4.7691,2.4975,2.4975,0,0,0,1.1923.4707,26.862,26.862,0,0,1,6.3693,2.9807c1.2551.9413,6.15,3.2945,6.84,3.2945a.8992.8992,0,0,1,.7531.4706c.1882.5648,2.3218,1.7257,3.1062,1.7257a1.6967,1.6967,0,0,1,1.0354.4392,12.3747,12.3747,0,0,0,2.5414,1.2551,94.6417,94.6417,0,0,1,8.9422,4.2044,49.6167,49.6167,0,0,0,6.1183,2.8865,14.0006,14.0006,0,0,1,2.2905.91c1.0668.502,2.9807,1.2864,4.2357,1.7884a24.0627,24.0627,0,0,1,3.922,1.9139,11.9776,11.9776,0,0,0,2.4159,1.255,5.285,5.285,0,0,1,1.82,1.0982,3.6459,3.6459,0,0,0,1.6315.8785,4.1509,4.1509,0,0,1,1.6315.6275,4.2255,4.2255,0,0,0,1.5375.6276,9.3384,9.3384,0,0,1,2.3532.9726,39.3451,39.3451,0,0,0,4.2671,1.8826,49.4985,49.4985,0,0,1,4.8633,2.1021c2.3532,1.2237,6.934,3.4828,12.017,5.8987,1.2864.6276,3.5455,1.7571,4.9887,2.51a15.9927,15.9927,0,0,0,3.2318,1.3806,4.2465,4.2465,0,0,1,1.757.7844,4.3039,4.3039,0,0,0,2.3532.7844,3.399,3.399,0,0,1,2.0081.6275,3.0208,3.0208,0,0,0,1.5688.6275,17.2166,17.2166,0,0,1,5.24,1.757,2.5278,2.5278,0,0,0,1.2236.4393,2.9268,2.9268,0,0,1,1.3806.6275,3.7494,3.7494,0,0,0,2.4473.6276,3.9344,3.9344,0,0,0,3.0435-1.0668c1.6315-1.2551,1.82-1.6,1.82-3.5455,0-1.4119.0314-1.4433,4.2671-5.5536a52.7838,52.7838,0,0,1,4.8633-4.33,28.7833,28.7833,0,0,0,3.4513-2.6669c1.6-1.3178,3.2945-2.6983,3.7652-3.0749.4706-.3451,1.9139-1.4119,3.1689-2.3532a47.0138,47.0138,0,0,1,4.926-3.4513c1.0355-.5962,4.424-3.922,4.424-4.33a82.8978,82.8978,0,0,1,6.0242-6.3066c4.2044-4.173,6.2438-5.9928,6.7458-5.9928.5962,0,1.5061.7531,5.585,4.675.3451.3452,1.3491,1.412,2.1963,2.3532.8785.9727,2.4159,2.6356,3.4513,3.7338s2.7925,3.0748,3.922,4.424c1.13,1.3178,2.73,3.1376,3.5769,4.0475a25.3115,25.3115,0,0,1,2.0394,2.4159c.502.8158,3.7965,3.922,7.8754,7.53,4.3926,3.8592,7.06,6.4007,7.4675,7.1223.22.4079.5334.7216.6589.7216a55.4243,55.4243,0,0,1,6.62,5.334c.753.9412,3.2317,2.51,3.9847,2.51a2.228,2.228,0,0,1,1.4119.9727c.7844.9726,2.3846,1.6943,4.6123,2.0394,1.1923.1883,1.3492.1255,2.4159-1.0981.6275-.69,1.2864-1.1923,1.4433-1.0982,1.3178.8158,5.3339-2.1649,5.93-4.3613a6.2986,6.2986,0,0,1,1.6629-2.5414,12.4715,12.4715,0,0,0,2.0395-2.6983,12.3414,12.3414,0,0,1,1.2864-2.0395,10.39,10.39,0,0,0,1.1923-1.8825A14.9225,14.9225,0,0,1,553.5,478.77a28.3544,28.3544,0,0,0,2.5414-2.9808,12.9622,12.9622,0,0,1,3.4514-3.7337,3.0947,3.0947,0,0,0,1.0354-1.2237,10.2594,10.2594,0,0,1,1.2237-2.0708c1.2236-1.7257,2.3532-3.922,2.3532-4.5495a7.2568,7.2568,0,0,1,1.7257-2.1336,14.7045,14.7045,0,0,0,2.5414-3.2,16.82,16.82,0,0,1,1.6629-2.667c.4707-.6275,1.2551-1.757,1.7257-2.5414s1.6-2.4787,2.5728-3.7651c.9413-1.2864,1.9453-2.7611,2.2591-3.2631.2824-.502.9726-1.4747,1.4746-2.1963a26.3248,26.3248,0,0,0,1.8512-3.0121,18.489,18.489,0,0,1,2.2591-3.2,7.0856,7.0856,0,0,0,1.38-1.8511,12.1517,12.1517,0,0,1,1.82-2.6043c1.0041-1.2236,2.3532-3.0748,3.0121-4.11.6276-1.0354,1.663-2.667,2.2591-3.6082s1.6629-2.8239,2.3218-4.1417a19.8883,19.8883,0,0,1,2.6983-3.922,14.52,14.52,0,0,0,2.2905-3.2317,38.3934,38.3934,0,0,1,4.2671-6.5889,40.0517,40.0517,0,0,0,2.6983-4.2358c1.4747-2.7925,4.9575-7.9695,5.6163-8.3146a2.5805,2.5805,0,0,0,.8786-1.1923,11.3581,11.3581,0,0,1,1.3492-2.3532c.5961-.7844,1.4119-1.9453,1.8512-2.5728.4392-.6589,1.2864-1.7571,1.8825-2.4787a22.4435,22.4435,0,0,0,1.9139-2.5415c.4393-.69,1.1923-1.8512,1.663-2.6042a4.77,4.77,0,0,1,1.2864-1.5061,10.59,10.59,0,0,0,1.7257-2.3532c.7216-1.2236,1.4746-2.1335,1.6629-2.0708a6.253,6.253,0,0,1,.7844,2.4474Z" style="fill: #343434"/>
  </g>
</svg>
