<svg id="Vrstva_1" data-name="Vrstva 1" xmlns="http://www.w3.org/2000/svg" viewBox="0 0 293.45 53.13"><defs><style>.cls-1{fill:#363940;}.cls-2{fill:#ff4c50;}.cls-3{fill:#898e9e;}.cls-4{fill:#a4a8b8;}.cls-5{fill:#6b6f7e;}</style></defs><path class="cls-1" d="M87.7,17.77h6.21L85.57,39.7H78.45L70.08,17.77H76.3L82,34Z"/><path class="cls-1" d="M96.07,10.73a3.37,3.37,0,1,1,6.74,0,3.37,3.37,0,0,1-6.74,0Zm.44,29V17.77h5.87V39.7Z"/><path class="cls-1" d="M117.86,26.74c4.34.8,6.51,2.77,6.51,6.56,0,4.41-3.66,6.86-9.28,6.86a20.53,20.53,0,0,1-8.45-1.58l.62-4.8a21.08,21.08,0,0,0,7.38,1.53c2.85,0,4.06-.59,4.06-1.9,0-1.16-.93-1.73-3.49-2.19l-2.63-.5c-4.22-.73-6.28-2.88-6.28-6.51,0-4.09,3.79-6.9,9.62-6.9a19.15,19.15,0,0,1,7.42,1.37l-.5,4.77a20,20,0,0,0-6.63-1.23c-2.87,0-4.27.69-4.27,2,0,1.07,1,1.62,3.59,2.1Z"/><path class="cls-1" d="M142.66,17.77h5.85v12.9c0,5.55-4.18,9.49-10.37,9.49s-10.26-3.89-10.26-9.35v-13h5.87V30.08a4.46,4.46,0,1,0,8.91,0Z"/><path class="cls-1" d="M152,28.69c0-6.65,4.55-11.38,10.58-11.38a8.66,8.66,0,0,1,7.15,3.11l.12-2.65h5.73V39.7h-5.73l-.12-2.65a8.61,8.61,0,0,1-7.15,3.11C156.53,40.16,152,35.33,152,28.69Zm11.72-6.15a5.81,5.81,0,0,0-5.89,6.15c0,3.51,2.38,6.26,5.89,6.26a6,6,0,0,0,6-6.26A5.89,5.89,0,0,0,163.7,22.54Z"/><path class="cls-1" d="M186.52,39.7h-5.85V7.53h5.85Z"/><path class="cls-1" d="M197.48,37.37l-.12,2.33h-5.73V7.51h5.76V20.42c1.43-1.83,3.7-3.11,7.21-3.11,6.22,0,10.63,4.73,10.63,11.4s-4.41,11.45-10.63,11.45A9.16,9.16,0,0,1,197.48,37.37Zm5.94-2.47a5.94,5.94,0,0,0,5.94-6.21,5.81,5.81,0,0,0-5.94-6.13,5.89,5.89,0,0,0-6,6.13A6,6,0,0,0,203.42,34.9Z"/><path class="cls-1" d="M229.64,17.31a11.31,11.31,0,0,1,11.72,11.42c0,6.49-5,11.43-11.72,11.43a11.43,11.43,0,1,1,0-22.85Zm0,17.54a5.8,5.8,0,0,0,5.89-6.12,5.9,5.9,0,1,0-11.79,0A5.82,5.82,0,0,0,229.64,34.85Z"/><path class="cls-1" d="M255.72,17.31a11.31,11.31,0,0,1,11.72,11.42c0,6.49-5,11.43-11.72,11.43a11.43,11.43,0,1,1,0-22.85Zm0,17.54a5.8,5.8,0,0,0,5.89-6.12,5.9,5.9,0,1,0-11.79,0A5.82,5.82,0,0,0,255.72,34.85Z"/><path class="cls-1" d="M277.16,25.79h3.43l4.93-8H292L285.2,28.39l8.25,11.31h-6.9l-6.14-8.84h-3.25V39.7h-5.85V7.53h5.85Z"/><circle class="cls-2" cx="45.2" cy="12.33" r="12.33"/><rect class="cls-3" x="8.22" y="16.98" width="24.65" height="19.18" transform="translate(-10.53 13.83) rotate(-30)"/><path class="cls-4" d="M18.09,47A12.33,12.33,0,0,0,39.44,34.63L36,28.7,14.67,41Z"/><path class="cls-5" d="M6.17,1.65A12.33,12.33,0,0,0,1.65,18.49l3.43,5.93L26.43,12.1,23,6.17A12.32,12.32,0,0,0,6.17,1.65Z"/></svg>